Coordinates
version=1
nRows=5
nColumns=63
inDegrees=yes

Units are S.I. units (second, meters, Newtons, ...)
If the header above contains a line with 'inDegrees', this indicates whether rotational values are in degrees (yes) or radians (no).

endheader
time	pelvis_tilt	pelvis_list	pelvis_rotation	pelvis_tx	pelvis_ty	pelvis_tz	hip_flexion_r	hip_adduction_r	hip_rotation_r	knee_angle_r	knee_angle_r_beta	ankle_angle_r	subtalar_angle_r	mtp_angle_r	hip_flexion_l	hip_adduction_l	hip_rotation_l	knee_angle_l	knee_angle_l_beta	ankle_angle_l	subtalar_angle_l	mtp_angle_l	L5_S1_Flex_Ext	L5_S1_Lat_Bending	L5_S1_axial_rotation	L4_L5_Flex_Ext	L4_L5_Lat_Bending	L4_L5_axial_rotation	L3_L4_Flex_Ext	L3_L4_Lat_Bending	L3_L4_axial_rotation	L2_L3_Flex_Ext	L2_L3_Lat_Bending	L2_L3_axial_rotation	L1_L2_Flex_Ext	L1_L2_Lat_Bending	L1_L2_axial_rotation	L1_T12_Flex_Ext	L1_T12_Lat_Bending	L1_T12_axial_rotation	Abs_r3	Abs_r2	Abs_r1	Abs_t1	Abs_t2	neck_flexion	neck_bending	neck_rotation	arm_flex_r	arm_add_r	arm_rot_r	elbow_flex_r	pro_sup_r	wrist_flex_r	wrist_dev_r	arm_flex_l	arm_add_l	arm_rot_l	elbow_flex_l	pro_sup_l	wrist_flex_l	wrist_dev_l
      6.62500000	     -4.43662356	     -6.04847706	     95.27507875	      0.09288951	      0.53058439	      0.78222164	      3.58851265	      0.53580529	     -6.49671277	      7.86706839	      0.13730625	     31.19929891	     10.36920993	      0.00000000	      4.94351452	      1.63247307	     -6.78353073	      9.66472567	      0.16868128	     28.55994764	     -0.64946130	      0.00000000	      0.53633573	     -0.14012132	      1.56044632	      0.99602909	     -0.18636136	      1.65797422	      0.88114597	     -0.34069099	      1.65797422	      0.61297811	     -0.34069099	      1.36539053	      0.49804136	     -0.28573540	      1.26786264	      0.30646224	     -0.21704793	      1.17033474	      3.83099250	     -1.58508044	      8.67873431	      0.00000000	      0.00000000	     28.26482631	      2.08692536	     11.97815788	     -0.96255350	     -9.84949592	     41.65293242	     54.84504551	     88.67147274	     -1.35328849	      0.73527560	      9.95503109	    -12.89832210	     59.51340026	     55.75180306	     61.83590998	     15.16736955	     16.83571140
      6.64583333	     -4.37749399	     -6.02322900	     95.23746166	      0.09301636	      0.53058102	      0.78228137	      3.55413535	      0.62257685	     -6.37950410	      7.80603510	      0.13624101	     31.09787347	     10.04554496	      0.00000000	      4.90624687	      1.55787500	     -6.87952556	      9.61458667	      0.16780619	     28.54182867	     -0.63678690	      0.00000000	      0.53757774	     -0.13219640	      1.58210390	      0.99833562	     -0.17582121	      1.68098539	      0.88318647	     -0.32142232	      1.68098539	      0.61439760	     -0.32142232	      1.38434091	      0.49919469	     -0.26957489	      1.28545941	      0.30717192	     -0.20477222	      1.18657792	      3.83986404	     -1.49543207	      8.79918723	      0.00000000	      0.00000000	     28.25925605	      2.03824690	     11.92595447	     -1.02823014	     -9.90032232	     41.57059409	     55.02341083	     88.68439741	     -1.43852079	      0.96042638	     10.05072676	    -12.98774558	     60.18153087	     55.69052663	     61.34640643	     14.54766227	     16.48548205
      6.66666667	     -4.32451934	     -6.00293054	     95.16969512	      0.09324489	      0.53063132	      0.78239774	      3.50952517	      0.71093554	     -6.24753323	      7.69559536	      0.13431348	     30.96329360	      9.79311053	      0.00000000	      4.88856808	      1.47447056	     -7.10518797	      9.59576762	      0.16747774	     28.46106332	     -0.47387103	      0.00000000	      0.54187406	     -0.12517454	      1.59526277	      1.00631432	     -0.16648214	      1.69496669	      0.89024490	     -0.30434939	      1.69496669	      0.61930787	     -0.30434939	      1.39585492	      0.50318425	     -0.25525593	      1.29615100	      0.30962684	     -0.19389537	      1.19644708	      3.87055224	     -1.41599948	      8.87237295	      0.00000000	      0.00000000	     28.25018119	      1.94339755	     11.85249214	     -0.98851447	     -9.95011241	     41.66660785	     55.11789997	     88.70860986	     -1.48149063	      1.23951611	     10.05794407	    -13.07887882	     60.75130737	     55.56640470	     60.89391868	     13.95784279	     16.07218406
      6.68750000	     -4.23807150	     -6.00729828	     95.07606171	      0.09341677	      0.53059980	      0.78242601	      3.53215993	      0.76936795	     -6.82427510	      7.67839199	      0.13401322	     31.03188427	     10.63833566	      0.00000000	      4.87932048	      1.37289037	     -7.20000342	      9.55640891	      0.16679080	     28.34412435	     -0.46909820	      0.00000000	      0.55103887	     -0.10770316	      1.59513537	      1.02333428	     -0.14324520	      1.69483133	      0.90530175	     -0.26186945	      1.69483133	      0.62978232	     -0.26186945	      1.39574345	      0.51169469	     -0.21962827	      1.29604749	      0.31486361	     -0.16683219	      1.19635153	      3.93601551	     -1.21835963	      8.87166438	      0.00000000	      0.00000000	     28.23476514	      2.22098902	     12.69861862	     -1.03903998	     -9.97135248	     41.62993015	     55.17970291	     88.73620583	     -1.69766005	      1.18242182	      9.94796836	    -13.05519457	     60.94161145	     55.33688536	     61.77111047	     13.76096882	     15.48819153
      6.70833333	     -4.15417600	     -5.92269611	     95.29431680	      0.09305545	      0.53075580	      0.78260628	      3.47490247	      0.74052199	     -8.68020838	      7.74770838	      0.13522302	     31.26700423	     12.75608693	      0.00000000	      4.81539481	      1.29152685	     -7.08154209	      9.54844400	      0.16665179	     28.29469181	     -0.31827038	      0.00000000	      0.54445840	     -0.09023049	      1.47067353	      1.01111370	     -0.12000656	      1.56259063	      0.89449071	     -0.21938642	      1.56259063	      0.62226151	     -0.21938642	      1.28683934	      0.50558407	     -0.18399802	      1.19492225	      0.31110353	     -0.13976704	      1.10300515	      3.88901193	     -1.02070540	      8.17944500	      0.00000000	      0.00000000	     28.22686280	      2.56241056	     13.56012896	     -0.59427671	    -10.09090265	     42.48954622	     55.05259632	     88.65327166	     -1.66360509	      1.45621730	      9.39207394	    -12.92491072	     59.63803283	     55.00716865	     64.81115355	     14.99139153	     14.79177621
